<mxfile host="app.diagrams.net" modified="2024-05-03T20:19:33.812Z" agent="Mozilla/5.0 (Windows NT 10.0; Win64; x64) AppleWebKit/537.36 (KHTML, like Gecko) Chrome/124.0.0.0 Safari/537.36" etag="iJVp1y_ek686GcmlWQ8K" version="24.2.2" type="device">
  <diagram name="PÃ¡gina-1" id="vBWHXVK0815AD5dGq-6K">
    <mxGraphModel dx="2336" dy="1990" grid="1" gridSize="10" guides="1" tooltips="1" connect="1" arrows="1" fold="1" page="1" pageScale="1" pageWidth="827" pageHeight="1169" math="0" shadow="0">
      <root>
        <mxCell id="0" />
        <mxCell id="1" parent="0" />
        <mxCell id="jsRNLRrK1X6OkYk40ewY-31" value="sexo" style="ellipse;whiteSpace=wrap;html=1;" parent="1" vertex="1">
          <mxGeometry x="-135" y="415" width="70" height="30" as="geometry" />
        </mxCell>
        <mxCell id="WNFPSXFKTKzP_oiveUVC-4" value="Informam" style="rhombus;whiteSpace=wrap;html=1;" vertex="1" parent="1">
          <mxGeometry x="-715" y="-120" width="100" height="40" as="geometry" />
        </mxCell>
        <mxCell id="WNFPSXFKTKzP_oiveUVC-5" value="Cadastra" style="rhombus;whiteSpace=wrap;html=1;" vertex="1" parent="1">
          <mxGeometry x="-715" y="655" width="100" height="40" as="geometry" />
        </mxCell>
        <mxCell id="WNFPSXFKTKzP_oiveUVC-6" value="Acontece" style="rhombus;whiteSpace=wrap;html=1;" vertex="1" parent="1">
          <mxGeometry x="140" y="490" width="100" height="40" as="geometry" />
        </mxCell>
        <mxCell id="WNFPSXFKTKzP_oiveUVC-7" value="Possui" style="rhombus;whiteSpace=wrap;html=1;" vertex="1" parent="1">
          <mxGeometry x="-20" y="310" width="100" height="40" as="geometry" />
        </mxCell>
        <mxCell id="WNFPSXFKTKzP_oiveUVC-9" value="Define" style="rhombus;whiteSpace=wrap;html=1;" vertex="1" parent="1">
          <mxGeometry x="-510" y="490" width="100" height="40" as="geometry" />
        </mxCell>
        <mxCell id="WNFPSXFKTKzP_oiveUVC-10" value="Possui" style="rhombus;whiteSpace=wrap;html=1;" vertex="1" parent="1">
          <mxGeometry x="-343" y="310" width="100" height="40" as="geometry" />
        </mxCell>
        <mxCell id="WNFPSXFKTKzP_oiveUVC-20" value="Esportes" style="rounded=0;whiteSpace=wrap;html=1;" vertex="1" parent="1">
          <mxGeometry x="-520" y="300" width="120" height="60" as="geometry" />
        </mxCell>
        <mxCell id="WNFPSXFKTKzP_oiveUVC-21" value="&lt;div&gt;&lt;br&gt;&lt;/div&gt;&lt;div&gt;&lt;br&gt;&lt;/div&gt;" style="rounded=0;whiteSpace=wrap;html=1;" vertex="1" parent="1">
          <mxGeometry x="-193" y="300" width="120" height="60" as="geometry" />
        </mxCell>
        <mxCell id="WNFPSXFKTKzP_oiveUVC-24" value="Modalidades" style="rounded=0;whiteSpace=wrap;html=1;" vertex="1" parent="1">
          <mxGeometry x="-183" y="310" width="100" height="40" as="geometry" />
        </mxCell>
        <mxCell id="WNFPSXFKTKzP_oiveUVC-25" value="tipo" style="ellipse;whiteSpace=wrap;html=1;" vertex="1" parent="1">
          <mxGeometry x="-253" y="370" width="70" height="30" as="geometry" />
        </mxCell>
        <mxCell id="WNFPSXFKTKzP_oiveUVC-26" value="indicador" style="ellipse;whiteSpace=wrap;html=1;" vertex="1" parent="1">
          <mxGeometry x="-83" y="370" width="70" height="30" as="geometry" />
        </mxCell>
        <mxCell id="WNFPSXFKTKzP_oiveUVC-27" value="nome" style="ellipse;whiteSpace=wrap;html=1;" vertex="1" parent="1">
          <mxGeometry x="-210" y="415" width="70" height="30" as="geometry" />
        </mxCell>
        <mxCell id="WNFPSXFKTKzP_oiveUVC-29" value="tipo_sanguineo" style="ellipse;whiteSpace=wrap;html=1;" vertex="1" parent="1">
          <mxGeometry x="-320" y="-170" width="100" height="30" as="geometry" />
        </mxCell>
        <mxCell id="WNFPSXFKTKzP_oiveUVC-30" value="hora_inicio" style="ellipse;whiteSpace=wrap;html=1;" vertex="1" parent="1">
          <mxGeometry x="230" y="380" width="70" height="30" as="geometry" />
        </mxCell>
        <mxCell id="WNFPSXFKTKzP_oiveUVC-31" value="local" style="ellipse;whiteSpace=wrap;html=1;" vertex="1" parent="1">
          <mxGeometry x="65" y="260" width="70" height="30" as="geometry" />
        </mxCell>
        <mxCell id="WNFPSXFKTKzP_oiveUVC-32" value="data&lt;span style=&quot;white-space: pre;&quot;&gt;&#x9;&lt;/span&gt;" style="ellipse;whiteSpace=wrap;html=1;" vertex="1" parent="1">
          <mxGeometry x="110" y="220" width="70" height="30" as="geometry" />
        </mxCell>
        <mxCell id="WNFPSXFKTKzP_oiveUVC-33" value="hora_fim" style="ellipse;whiteSpace=wrap;html=1;" vertex="1" parent="1">
          <mxGeometry x="230" y="230" width="70" height="30" as="geometry" />
        </mxCell>
        <mxCell id="WNFPSXFKTKzP_oiveUVC-34" value="&lt;u&gt;id_coi&lt;/u&gt;" style="ellipse;whiteSpace=wrap;html=1;" vertex="1" parent="1">
          <mxGeometry x="-430" y="600" width="70" height="30" as="geometry" />
        </mxCell>
        <mxCell id="WNFPSXFKTKzP_oiveUVC-35" value="&lt;u&gt;id_esporte&lt;/u&gt;" style="ellipse;whiteSpace=wrap;html=1;" vertex="1" parent="1">
          <mxGeometry x="-413" y="250" width="70" height="30" as="geometry" />
        </mxCell>
        <mxCell id="WNFPSXFKTKzP_oiveUVC-36" value="genero" style="ellipse;whiteSpace=wrap;html=1;" vertex="1" parent="1">
          <mxGeometry x="-557.5" y="220" width="70" height="30" as="geometry" />
        </mxCell>
        <mxCell id="WNFPSXFKTKzP_oiveUVC-37" value="nome" style="ellipse;whiteSpace=wrap;html=1;" vertex="1" parent="1">
          <mxGeometry x="-590" y="260" width="70" height="30" as="geometry" />
        </mxCell>
        <mxCell id="WNFPSXFKTKzP_oiveUVC-38" value="" style="endArrow=none;html=1;rounded=0;exitX=0.5;exitY=1;exitDx=0;exitDy=0;" edge="1" parent="1" source="WNFPSXFKTKzP_oiveUVC-37" target="WNFPSXFKTKzP_oiveUVC-20">
          <mxGeometry width="50" height="50" relative="1" as="geometry">
            <mxPoint x="-150" y="390" as="sourcePoint" />
            <mxPoint x="-100" y="340" as="targetPoint" />
          </mxGeometry>
        </mxCell>
        <mxCell id="WNFPSXFKTKzP_oiveUVC-39" value="" style="endArrow=none;html=1;rounded=0;exitX=0.5;exitY=1;exitDx=0;exitDy=0;entryX=0.5;entryY=0;entryDx=0;entryDy=0;" edge="1" parent="1" source="WNFPSXFKTKzP_oiveUVC-36" target="WNFPSXFKTKzP_oiveUVC-20">
          <mxGeometry width="50" height="50" relative="1" as="geometry">
            <mxPoint x="-518" y="291" as="sourcePoint" />
            <mxPoint x="-480" y="330" as="targetPoint" />
            <Array as="points" />
          </mxGeometry>
        </mxCell>
        <mxCell id="WNFPSXFKTKzP_oiveUVC-40" value="" style="endArrow=none;html=1;rounded=0;entryX=0.5;entryY=1;entryDx=0;entryDy=0;exitX=0.75;exitY=0;exitDx=0;exitDy=0;" edge="1" parent="1" source="WNFPSXFKTKzP_oiveUVC-20" target="WNFPSXFKTKzP_oiveUVC-35">
          <mxGeometry width="50" height="50" relative="1" as="geometry">
            <mxPoint x="-440" y="320" as="sourcePoint" />
            <mxPoint x="-100" y="340" as="targetPoint" />
          </mxGeometry>
        </mxCell>
        <mxCell id="WNFPSXFKTKzP_oiveUVC-46" value="" style="endArrow=none;html=1;rounded=0;entryX=1;entryY=0.5;entryDx=0;entryDy=0;exitX=0;exitY=0.5;exitDx=0;exitDy=0;" edge="1" parent="1" source="WNFPSXFKTKzP_oiveUVC-10" target="WNFPSXFKTKzP_oiveUVC-20">
          <mxGeometry width="50" height="50" relative="1" as="geometry">
            <mxPoint x="-480" y="490" as="sourcePoint" />
            <mxPoint x="-430" y="440" as="targetPoint" />
          </mxGeometry>
        </mxCell>
        <mxCell id="WNFPSXFKTKzP_oiveUVC-49" value="1,1" style="edgeLabel;html=1;align=center;verticalAlign=middle;resizable=0;points=[];" vertex="1" connectable="0" parent="WNFPSXFKTKzP_oiveUVC-46">
          <mxGeometry x="-0.1083" y="2" relative="1" as="geometry">
            <mxPoint as="offset" />
          </mxGeometry>
        </mxCell>
        <mxCell id="WNFPSXFKTKzP_oiveUVC-47" value="" style="endArrow=none;html=1;rounded=0;entryX=1;entryY=0.5;entryDx=0;entryDy=0;exitX=0;exitY=0.5;exitDx=0;exitDy=0;" edge="1" parent="1" source="WNFPSXFKTKzP_oiveUVC-21" target="WNFPSXFKTKzP_oiveUVC-10">
          <mxGeometry width="50" height="50" relative="1" as="geometry">
            <mxPoint x="-433" y="410" as="sourcePoint" />
            <mxPoint x="-236" y="330" as="targetPoint" />
          </mxGeometry>
        </mxCell>
        <mxCell id="WNFPSXFKTKzP_oiveUVC-48" value="0,n" style="edgeLabel;html=1;align=center;verticalAlign=middle;resizable=0;points=[];" vertex="1" connectable="0" parent="WNFPSXFKTKzP_oiveUVC-47">
          <mxGeometry x="0.0329" relative="1" as="geometry">
            <mxPoint as="offset" />
          </mxGeometry>
        </mxCell>
        <mxCell id="WNFPSXFKTKzP_oiveUVC-50" value="Comite Olimpico Internacional (COI)" style="rounded=0;whiteSpace=wrap;html=1;" vertex="1" parent="1">
          <mxGeometry x="-520" y="645" width="120" height="60" as="geometry" />
        </mxCell>
        <mxCell id="WNFPSXFKTKzP_oiveUVC-52" value="" style="endArrow=none;html=1;rounded=0;entryX=0.5;entryY=0;entryDx=0;entryDy=0;exitX=0.5;exitY=1;exitDx=0;exitDy=0;" edge="1" parent="1" source="WNFPSXFKTKzP_oiveUVC-20" target="WNFPSXFKTKzP_oiveUVC-9">
          <mxGeometry width="50" height="50" relative="1" as="geometry">
            <mxPoint x="-470" y="490" as="sourcePoint" />
            <mxPoint x="-420" y="440" as="targetPoint" />
          </mxGeometry>
        </mxCell>
        <mxCell id="WNFPSXFKTKzP_oiveUVC-58" value="0,n" style="edgeLabel;html=1;align=center;verticalAlign=middle;resizable=0;points=[];" vertex="1" connectable="0" parent="WNFPSXFKTKzP_oiveUVC-52">
          <mxGeometry x="-0.3131" relative="1" as="geometry">
            <mxPoint y="-25" as="offset" />
          </mxGeometry>
        </mxCell>
        <mxCell id="WNFPSXFKTKzP_oiveUVC-57" value="" style="endArrow=none;html=1;rounded=0;entryX=0.5;entryY=1;entryDx=0;entryDy=0;exitX=0.5;exitY=0;exitDx=0;exitDy=0;" edge="1" parent="1" source="WNFPSXFKTKzP_oiveUVC-50" target="WNFPSXFKTKzP_oiveUVC-9">
          <mxGeometry width="50" height="50" relative="1" as="geometry">
            <mxPoint x="-470" y="625" as="sourcePoint" />
            <mxPoint x="-420" y="575" as="targetPoint" />
          </mxGeometry>
        </mxCell>
        <mxCell id="WNFPSXFKTKzP_oiveUVC-246" value="1,1" style="edgeLabel;html=1;align=center;verticalAlign=middle;resizable=0;points=[];" vertex="1" connectable="0" parent="WNFPSXFKTKzP_oiveUVC-57">
          <mxGeometry x="-0.6885" y="3" relative="1" as="geometry">
            <mxPoint as="offset" />
          </mxGeometry>
        </mxCell>
        <mxCell id="WNFPSXFKTKzP_oiveUVC-60" value="" style="endArrow=none;html=1;rounded=0;entryX=0.75;entryY=0;entryDx=0;entryDy=0;exitX=0.5;exitY=1;exitDx=0;exitDy=0;" edge="1" parent="1" source="WNFPSXFKTKzP_oiveUVC-34" target="WNFPSXFKTKzP_oiveUVC-50">
          <mxGeometry width="50" height="50" relative="1" as="geometry">
            <mxPoint x="-273" y="650" as="sourcePoint" />
            <mxPoint x="-263" y="660" as="targetPoint" />
          </mxGeometry>
        </mxCell>
        <mxCell id="WNFPSXFKTKzP_oiveUVC-61" value="Evento" style="rounded=0;whiteSpace=wrap;html=1;" vertex="1" parent="1">
          <mxGeometry x="130" y="300" width="120" height="60" as="geometry" />
        </mxCell>
        <mxCell id="WNFPSXFKTKzP_oiveUVC-68" value="&lt;u&gt;id_con&lt;/u&gt;" style="ellipse;whiteSpace=wrap;html=1;" vertex="1" parent="1">
          <mxGeometry x="-795" y="270" width="70" height="30" as="geometry" />
        </mxCell>
        <mxCell id="WNFPSXFKTKzP_oiveUVC-69" value="Comite Olimpico Nacional(CON)" style="rounded=0;whiteSpace=wrap;html=1;" vertex="1" parent="1">
          <mxGeometry x="-725" y="300" width="120" height="60" as="geometry" />
        </mxCell>
        <mxCell id="WNFPSXFKTKzP_oiveUVC-70" value="" style="endArrow=none;html=1;rounded=0;entryX=0;entryY=0.5;entryDx=0;entryDy=0;exitX=0.5;exitY=1;exitDx=0;exitDy=0;" edge="1" parent="1" source="WNFPSXFKTKzP_oiveUVC-68" target="WNFPSXFKTKzP_oiveUVC-69">
          <mxGeometry width="50" height="50" relative="1" as="geometry">
            <mxPoint x="-650" y="530" as="sourcePoint" />
            <mxPoint x="-600" y="480" as="targetPoint" />
          </mxGeometry>
        </mxCell>
        <mxCell id="WNFPSXFKTKzP_oiveUVC-71" value="Atleta" style="rounded=0;whiteSpace=wrap;html=1;" vertex="1" parent="1">
          <mxGeometry x="-195" y="-130" width="120" height="60" as="geometry" />
        </mxCell>
        <mxCell id="WNFPSXFKTKzP_oiveUVC-72" value="&lt;u&gt;id_evento&lt;/u&gt;" style="ellipse;whiteSpace=wrap;html=1;" vertex="1" parent="1">
          <mxGeometry x="255" y="270" width="70" height="30" as="geometry" />
        </mxCell>
        <mxCell id="WNFPSXFKTKzP_oiveUVC-73" value="sexo" style="ellipse;whiteSpace=wrap;html=1;" vertex="1" parent="1">
          <mxGeometry x="-535" y="-40" width="70" height="30" as="geometry" />
        </mxCell>
        <mxCell id="WNFPSXFKTKzP_oiveUVC-74" value="nacionalidade" style="ellipse;whiteSpace=wrap;html=1;" vertex="1" parent="1">
          <mxGeometry x="-487.5" y="-70" width="85" height="30" as="geometry" />
        </mxCell>
        <mxCell id="WNFPSXFKTKzP_oiveUVC-75" value="data_nasc" style="ellipse;whiteSpace=wrap;html=1;" vertex="1" parent="1">
          <mxGeometry x="-415" y="-50" width="70" height="30" as="geometry" />
        </mxCell>
        <mxCell id="WNFPSXFKTKzP_oiveUVC-76" value="altura" style="ellipse;whiteSpace=wrap;html=1;" vertex="1" parent="1">
          <mxGeometry x="-275" y="-210" width="70" height="30" as="geometry" />
        </mxCell>
        <mxCell id="WNFPSXFKTKzP_oiveUVC-77" value="nacionalidade" style="ellipse;whiteSpace=wrap;html=1;" vertex="1" parent="1">
          <mxGeometry x="-65" y="-40" width="85" height="30" as="geometry" />
        </mxCell>
        <mxCell id="WNFPSXFKTKzP_oiveUVC-78" value="nome" style="ellipse;whiteSpace=wrap;html=1;" vertex="1" parent="1">
          <mxGeometry x="-115" y="-210" width="70" height="30" as="geometry" />
        </mxCell>
        <mxCell id="WNFPSXFKTKzP_oiveUVC-79" value="data_nasc" style="ellipse;whiteSpace=wrap;html=1;" vertex="1" parent="1">
          <mxGeometry x="-55" y="-180" width="70" height="30" as="geometry" />
        </mxCell>
        <mxCell id="WNFPSXFKTKzP_oiveUVC-80" value="&lt;u&gt;num_passaporte&lt;/u&gt;" style="ellipse;whiteSpace=wrap;html=1;" vertex="1" parent="1">
          <mxGeometry x="-220" y="-240" width="115" height="30" as="geometry" />
        </mxCell>
        <mxCell id="WNFPSXFKTKzP_oiveUVC-81" value="peso" style="ellipse;whiteSpace=wrap;html=1;" vertex="1" parent="1">
          <mxGeometry x="-15" y="-80" width="70" height="30" as="geometry" />
        </mxCell>
        <mxCell id="WNFPSXFKTKzP_oiveUVC-82" value="sexo" style="ellipse;whiteSpace=wrap;html=1;" vertex="1" parent="1">
          <mxGeometry x="-15" y="-130" width="70" height="30" as="geometry" />
        </mxCell>
        <mxCell id="WNFPSXFKTKzP_oiveUVC-84" value="" style="endArrow=none;html=1;rounded=0;exitX=0.574;exitY=-0.003;exitDx=0;exitDy=0;entryX=0.5;entryY=1;entryDx=0;entryDy=0;exitPerimeter=0;" edge="1" parent="1" source="WNFPSXFKTKzP_oiveUVC-71" target="WNFPSXFKTKzP_oiveUVC-80">
          <mxGeometry width="50" height="50" relative="1" as="geometry">
            <mxPoint x="-135" y="-120" as="sourcePoint" />
            <mxPoint x="-85" y="-170" as="targetPoint" />
          </mxGeometry>
        </mxCell>
        <mxCell id="WNFPSXFKTKzP_oiveUVC-85" value="" style="endArrow=none;html=1;rounded=0;exitX=0.642;exitY=0.003;exitDx=0;exitDy=0;entryX=0.5;entryY=1;entryDx=0;entryDy=0;exitPerimeter=0;" edge="1" parent="1" source="WNFPSXFKTKzP_oiveUVC-71" target="WNFPSXFKTKzP_oiveUVC-78">
          <mxGeometry width="50" height="50" relative="1" as="geometry">
            <mxPoint x="-155" y="-120" as="sourcePoint" />
            <mxPoint x="-105" y="-170" as="targetPoint" />
          </mxGeometry>
        </mxCell>
        <mxCell id="WNFPSXFKTKzP_oiveUVC-86" value="" style="endArrow=none;html=1;rounded=0;exitX=1;exitY=0.25;exitDx=0;exitDy=0;entryX=0.5;entryY=1;entryDx=0;entryDy=0;" edge="1" parent="1" source="WNFPSXFKTKzP_oiveUVC-71" target="WNFPSXFKTKzP_oiveUVC-79">
          <mxGeometry width="50" height="50" relative="1" as="geometry">
            <mxPoint x="-155" y="-120" as="sourcePoint" />
            <mxPoint x="-105" y="-170" as="targetPoint" />
          </mxGeometry>
        </mxCell>
        <mxCell id="WNFPSXFKTKzP_oiveUVC-87" value="" style="endArrow=none;html=1;rounded=0;exitX=1;exitY=0.5;exitDx=0;exitDy=0;entryX=0;entryY=0.5;entryDx=0;entryDy=0;" edge="1" parent="1" source="WNFPSXFKTKzP_oiveUVC-71" target="WNFPSXFKTKzP_oiveUVC-82">
          <mxGeometry width="50" height="50" relative="1" as="geometry">
            <mxPoint x="-115" y="-70" as="sourcePoint" />
            <mxPoint x="-65" y="-120" as="targetPoint" />
          </mxGeometry>
        </mxCell>
        <mxCell id="WNFPSXFKTKzP_oiveUVC-88" value="" style="endArrow=none;html=1;rounded=0;exitX=1;exitY=0.75;exitDx=0;exitDy=0;entryX=0;entryY=0.5;entryDx=0;entryDy=0;" edge="1" parent="1" source="WNFPSXFKTKzP_oiveUVC-71" target="WNFPSXFKTKzP_oiveUVC-81">
          <mxGeometry width="50" height="50" relative="1" as="geometry">
            <mxPoint x="-115" y="-70" as="sourcePoint" />
            <mxPoint x="-65" y="-120" as="targetPoint" />
          </mxGeometry>
        </mxCell>
        <mxCell id="WNFPSXFKTKzP_oiveUVC-91" value="" style="endArrow=none;html=1;rounded=0;exitX=0.75;exitY=1;exitDx=0;exitDy=0;entryX=0;entryY=0;entryDx=0;entryDy=0;" edge="1" parent="1" source="WNFPSXFKTKzP_oiveUVC-71" target="WNFPSXFKTKzP_oiveUVC-77">
          <mxGeometry width="50" height="50" relative="1" as="geometry">
            <mxPoint x="-115" y="-70" as="sourcePoint" />
            <mxPoint x="-65" y="-120" as="targetPoint" />
          </mxGeometry>
        </mxCell>
        <mxCell id="WNFPSXFKTKzP_oiveUVC-92" value="" style="endArrow=none;html=1;rounded=0;entryX=0.5;entryY=0;entryDx=0;entryDy=0;exitX=1;exitY=1;exitDx=0;exitDy=0;" edge="1" parent="1" source="WNFPSXFKTKzP_oiveUVC-76" target="WNFPSXFKTKzP_oiveUVC-71">
          <mxGeometry width="50" height="50" relative="1" as="geometry">
            <mxPoint x="-115" y="-10" as="sourcePoint" />
            <mxPoint x="-65" y="-60" as="targetPoint" />
          </mxGeometry>
        </mxCell>
        <mxCell id="WNFPSXFKTKzP_oiveUVC-93" value="" style="endArrow=none;html=1;rounded=0;entryX=0.25;entryY=0;entryDx=0;entryDy=0;exitX=1;exitY=0.5;exitDx=0;exitDy=0;" edge="1" parent="1" source="WNFPSXFKTKzP_oiveUVC-29" target="WNFPSXFKTKzP_oiveUVC-71">
          <mxGeometry width="50" height="50" relative="1" as="geometry">
            <mxPoint x="-75" y="20" as="sourcePoint" />
            <mxPoint x="-25" y="-30" as="targetPoint" />
          </mxGeometry>
        </mxCell>
        <mxCell id="WNFPSXFKTKzP_oiveUVC-94" value="Arbitro" style="rounded=0;whiteSpace=wrap;html=1;" vertex="1" parent="1">
          <mxGeometry x="-518" y="30" width="120" height="60" as="geometry" />
        </mxCell>
        <mxCell id="WNFPSXFKTKzP_oiveUVC-99" value="nome" style="ellipse;whiteSpace=wrap;html=1;" vertex="1" parent="1">
          <mxGeometry x="-385" y="-10" width="70" height="30" as="geometry" />
        </mxCell>
        <mxCell id="WNFPSXFKTKzP_oiveUVC-100" value="&lt;u&gt;num_passaporte&lt;/u&gt;" style="ellipse;whiteSpace=wrap;html=1;" vertex="1" parent="1">
          <mxGeometry x="-640" y="-10" width="105" height="30" as="geometry" />
        </mxCell>
        <mxCell id="WNFPSXFKTKzP_oiveUVC-101" value="" style="endArrow=none;html=1;rounded=0;entryX=0.536;entryY=0.005;entryDx=0;entryDy=0;exitX=0.5;exitY=1;exitDx=0;exitDy=0;entryPerimeter=0;" edge="1" parent="1" source="WNFPSXFKTKzP_oiveUVC-74" target="WNFPSXFKTKzP_oiveUVC-94">
          <mxGeometry width="50" height="50" relative="1" as="geometry">
            <mxPoint x="-397" y="90" as="sourcePoint" />
            <mxPoint x="-347" y="40" as="targetPoint" />
          </mxGeometry>
        </mxCell>
        <mxCell id="WNFPSXFKTKzP_oiveUVC-102" value="" style="endArrow=none;html=1;rounded=0;exitX=0.5;exitY=1;exitDx=0;exitDy=0;entryX=0.335;entryY=0.003;entryDx=0;entryDy=0;entryPerimeter=0;" edge="1" parent="1" source="WNFPSXFKTKzP_oiveUVC-73" target="WNFPSXFKTKzP_oiveUVC-94">
          <mxGeometry width="50" height="50" relative="1" as="geometry">
            <mxPoint x="-427" y="120" as="sourcePoint" />
            <mxPoint x="-457" y="60" as="targetPoint" />
          </mxGeometry>
        </mxCell>
        <mxCell id="WNFPSXFKTKzP_oiveUVC-103" value="" style="endArrow=none;html=1;rounded=0;entryX=0.25;entryY=0;entryDx=0;entryDy=0;exitX=0.951;exitY=0.715;exitDx=0;exitDy=0;exitPerimeter=0;" edge="1" parent="1" source="WNFPSXFKTKzP_oiveUVC-100" target="WNFPSXFKTKzP_oiveUVC-94">
          <mxGeometry width="50" height="50" relative="1" as="geometry">
            <mxPoint x="-540" y="10" as="sourcePoint" />
            <mxPoint x="-377" y="70" as="targetPoint" />
          </mxGeometry>
        </mxCell>
        <mxCell id="WNFPSXFKTKzP_oiveUVC-104" value="" style="endArrow=none;html=1;rounded=0;exitX=0.485;exitY=1.014;exitDx=0;exitDy=0;entryX=0.671;entryY=0.005;entryDx=0;entryDy=0;entryPerimeter=0;exitPerimeter=0;" edge="1" parent="1" source="WNFPSXFKTKzP_oiveUVC-75" target="WNFPSXFKTKzP_oiveUVC-94">
          <mxGeometry width="50" height="50" relative="1" as="geometry">
            <mxPoint x="-427" y="120" as="sourcePoint" />
            <mxPoint x="-377" y="70" as="targetPoint" />
          </mxGeometry>
        </mxCell>
        <mxCell id="WNFPSXFKTKzP_oiveUVC-105" value="" style="endArrow=none;html=1;rounded=0;entryX=0;entryY=1;entryDx=0;entryDy=0;exitX=0.75;exitY=0;exitDx=0;exitDy=0;" edge="1" parent="1" source="WNFPSXFKTKzP_oiveUVC-94" target="WNFPSXFKTKzP_oiveUVC-99">
          <mxGeometry width="50" height="50" relative="1" as="geometry">
            <mxPoint x="-427" y="120" as="sourcePoint" />
            <mxPoint x="-377" y="70" as="targetPoint" />
          </mxGeometry>
        </mxCell>
        <mxCell id="WNFPSXFKTKzP_oiveUVC-108" value="" style="rounded=0;whiteSpace=wrap;html=1;" vertex="1" parent="1">
          <mxGeometry x="390" y="300" width="120" height="60" as="geometry" />
        </mxCell>
        <mxCell id="WNFPSXFKTKzP_oiveUVC-109" value="Ingresso" style="rhombus;whiteSpace=wrap;html=1;" vertex="1" parent="1">
          <mxGeometry x="400" y="310" width="100" height="40" as="geometry" />
        </mxCell>
        <mxCell id="WNFPSXFKTKzP_oiveUVC-110" value="num_assent" style="ellipse;whiteSpace=wrap;html=1;" vertex="1" parent="1">
          <mxGeometry x="469" y="410" width="70" height="30" as="geometry" />
        </mxCell>
        <mxCell id="WNFPSXFKTKzP_oiveUVC-111" value="preÃ§o" style="ellipse;whiteSpace=wrap;html=1;" vertex="1" parent="1">
          <mxGeometry x="370" y="410" width="70" height="30" as="geometry" />
        </mxCell>
        <mxCell id="WNFPSXFKTKzP_oiveUVC-113" value="&lt;u&gt;id_ingresso&lt;/u&gt;" style="ellipse;whiteSpace=wrap;html=1;" vertex="1" parent="1">
          <mxGeometry x="500" y="370" width="70" height="30" as="geometry" />
        </mxCell>
        <mxCell id="WNFPSXFKTKzP_oiveUVC-114" value="setor" style="ellipse;whiteSpace=wrap;html=1;" vertex="1" parent="1">
          <mxGeometry x="340" y="370" width="70" height="30" as="geometry" />
        </mxCell>
        <mxCell id="WNFPSXFKTKzP_oiveUVC-115" value="" style="endArrow=none;html=1;rounded=0;entryX=0.25;entryY=1;entryDx=0;entryDy=0;exitX=0.5;exitY=0;exitDx=0;exitDy=0;" edge="1" parent="1" source="WNFPSXFKTKzP_oiveUVC-114" target="WNFPSXFKTKzP_oiveUVC-108">
          <mxGeometry width="50" height="50" relative="1" as="geometry">
            <mxPoint x="390" y="400" as="sourcePoint" />
            <mxPoint x="440" y="350" as="targetPoint" />
          </mxGeometry>
        </mxCell>
        <mxCell id="WNFPSXFKTKzP_oiveUVC-116" value="" style="endArrow=none;html=1;rounded=0;entryX=0.424;entryY=1.004;entryDx=0;entryDy=0;exitX=0.5;exitY=0;exitDx=0;exitDy=0;entryPerimeter=0;" edge="1" parent="1" source="WNFPSXFKTKzP_oiveUVC-111" target="WNFPSXFKTKzP_oiveUVC-108">
          <mxGeometry width="50" height="50" relative="1" as="geometry">
            <mxPoint x="385" y="380" as="sourcePoint" />
            <mxPoint x="430" y="370" as="targetPoint" />
          </mxGeometry>
        </mxCell>
        <mxCell id="WNFPSXFKTKzP_oiveUVC-117" value="" style="endArrow=none;html=1;rounded=0;entryX=0.582;entryY=1.001;entryDx=0;entryDy=0;exitX=0.5;exitY=0;exitDx=0;exitDy=0;entryPerimeter=0;" edge="1" parent="1" source="WNFPSXFKTKzP_oiveUVC-110" target="WNFPSXFKTKzP_oiveUVC-108">
          <mxGeometry width="50" height="50" relative="1" as="geometry">
            <mxPoint x="410" y="420" as="sourcePoint" />
            <mxPoint x="460" y="370" as="targetPoint" />
          </mxGeometry>
        </mxCell>
        <mxCell id="WNFPSXFKTKzP_oiveUVC-118" value="" style="endArrow=none;html=1;rounded=0;entryX=0.75;entryY=1;entryDx=0;entryDy=0;exitX=0.5;exitY=0;exitDx=0;exitDy=0;" edge="1" parent="1" source="WNFPSXFKTKzP_oiveUVC-113" target="WNFPSXFKTKzP_oiveUVC-108">
          <mxGeometry width="50" height="50" relative="1" as="geometry">
            <mxPoint x="410" y="420" as="sourcePoint" />
            <mxPoint x="460" y="370" as="targetPoint" />
          </mxGeometry>
        </mxCell>
        <mxCell id="WNFPSXFKTKzP_oiveUVC-135" value="nome" style="ellipse;whiteSpace=wrap;html=1;" vertex="1" parent="1">
          <mxGeometry x="205" y="750" width="70" height="30" as="geometry" />
        </mxCell>
        <mxCell id="WNFPSXFKTKzP_oiveUVC-136" value="local" style="ellipse;whiteSpace=wrap;html=1;" vertex="1" parent="1">
          <mxGeometry x="250" y="715" width="70" height="30" as="geometry" />
        </mxCell>
        <mxCell id="WNFPSXFKTKzP_oiveUVC-137" value="&lt;u&gt;id_estadio&lt;/u&gt;" style="ellipse;whiteSpace=wrap;html=1;" vertex="1" parent="1">
          <mxGeometry x="55" y="720" width="70" height="30" as="geometry" />
        </mxCell>
        <mxCell id="WNFPSXFKTKzP_oiveUVC-138" value="capacidade" style="ellipse;whiteSpace=wrap;html=1;" vertex="1" parent="1">
          <mxGeometry x="125" y="750" width="70" height="30" as="geometry" />
        </mxCell>
        <mxCell id="WNFPSXFKTKzP_oiveUVC-139" value="Estadio" style="rounded=0;whiteSpace=wrap;html=1;" vertex="1" parent="1">
          <mxGeometry x="130" y="645" width="120" height="60" as="geometry" />
        </mxCell>
        <mxCell id="WNFPSXFKTKzP_oiveUVC-140" value="" style="endArrow=none;html=1;rounded=0;entryX=0.25;entryY=1;entryDx=0;entryDy=0;exitX=0.5;exitY=0;exitDx=0;exitDy=0;" edge="1" parent="1" source="WNFPSXFKTKzP_oiveUVC-137" target="WNFPSXFKTKzP_oiveUVC-139">
          <mxGeometry width="50" height="50" relative="1" as="geometry">
            <mxPoint x="-25" y="665" as="sourcePoint" />
            <mxPoint x="25" y="615" as="targetPoint" />
          </mxGeometry>
        </mxCell>
        <mxCell id="WNFPSXFKTKzP_oiveUVC-141" value="" style="endArrow=none;html=1;rounded=0;entryX=0.35;entryY=1.007;entryDx=0;entryDy=0;exitX=0.5;exitY=0;exitDx=0;exitDy=0;entryPerimeter=0;" edge="1" parent="1" source="WNFPSXFKTKzP_oiveUVC-138" target="WNFPSXFKTKzP_oiveUVC-139">
          <mxGeometry width="50" height="50" relative="1" as="geometry">
            <mxPoint x="95" y="725" as="sourcePoint" />
            <mxPoint x="145" y="675" as="targetPoint" />
          </mxGeometry>
        </mxCell>
        <mxCell id="WNFPSXFKTKzP_oiveUVC-142" value="" style="endArrow=none;html=1;rounded=0;entryX=0.582;entryY=1.003;entryDx=0;entryDy=0;exitX=0.5;exitY=0;exitDx=0;exitDy=0;entryPerimeter=0;" edge="1" parent="1" source="WNFPSXFKTKzP_oiveUVC-135" target="WNFPSXFKTKzP_oiveUVC-139">
          <mxGeometry width="50" height="50" relative="1" as="geometry">
            <mxPoint x="155" y="695" as="sourcePoint" />
            <mxPoint x="205" y="645" as="targetPoint" />
          </mxGeometry>
        </mxCell>
        <mxCell id="WNFPSXFKTKzP_oiveUVC-143" value="" style="endArrow=none;html=1;rounded=0;exitX=0.75;exitY=1;exitDx=0;exitDy=0;entryX=0;entryY=0;entryDx=0;entryDy=0;" edge="1" parent="1" source="WNFPSXFKTKzP_oiveUVC-139" target="WNFPSXFKTKzP_oiveUVC-136">
          <mxGeometry width="50" height="50" relative="1" as="geometry">
            <mxPoint x="155" y="695" as="sourcePoint" />
            <mxPoint x="205" y="645" as="targetPoint" />
          </mxGeometry>
        </mxCell>
        <mxCell id="WNFPSXFKTKzP_oiveUVC-148" value="Torcedor" style="rounded=0;whiteSpace=wrap;html=1;" vertex="1" parent="1">
          <mxGeometry x="630" y="300" width="120" height="60" as="geometry" />
        </mxCell>
        <mxCell id="WNFPSXFKTKzP_oiveUVC-149" value="&lt;u&gt;num_passaporte&lt;/u&gt;" style="ellipse;whiteSpace=wrap;html=1;" vertex="1" parent="1">
          <mxGeometry x="787" y="250" width="123" height="30" as="geometry" />
        </mxCell>
        <mxCell id="WNFPSXFKTKzP_oiveUVC-150" value="paÃ­s" style="ellipse;whiteSpace=wrap;html=1;" vertex="1" parent="1">
          <mxGeometry x="760" y="390" width="70" height="30" as="geometry" />
        </mxCell>
        <mxCell id="WNFPSXFKTKzP_oiveUVC-151" value="nome" style="ellipse;whiteSpace=wrap;html=1;" vertex="1" parent="1">
          <mxGeometry x="710" y="220" width="70" height="30" as="geometry" />
        </mxCell>
        <mxCell id="WNFPSXFKTKzP_oiveUVC-154" value="endereÃ§o" style="ellipse;whiteSpace=wrap;html=1;" vertex="1" parent="1">
          <mxGeometry x="810" y="350" width="70" height="30" as="geometry" />
        </mxCell>
        <mxCell id="WNFPSXFKTKzP_oiveUVC-155" value="num_cartao" style="ellipse;whiteSpace=wrap;html=1;" vertex="1" parent="1">
          <mxGeometry x="810" y="300" width="70" height="30" as="geometry" />
        </mxCell>
        <mxCell id="WNFPSXFKTKzP_oiveUVC-157" value="" style="endArrow=none;html=1;rounded=0;exitX=0.642;exitY=0.003;exitDx=0;exitDy=0;entryX=0.5;entryY=1;entryDx=0;entryDy=0;exitPerimeter=0;" edge="1" parent="1" source="WNFPSXFKTKzP_oiveUVC-148" target="WNFPSXFKTKzP_oiveUVC-151">
          <mxGeometry width="50" height="50" relative="1" as="geometry">
            <mxPoint x="670" y="310" as="sourcePoint" />
            <mxPoint x="720" y="260" as="targetPoint" />
          </mxGeometry>
        </mxCell>
        <mxCell id="WNFPSXFKTKzP_oiveUVC-159" value="" style="endArrow=none;html=1;rounded=0;exitX=1;exitY=0.5;exitDx=0;exitDy=0;entryX=0;entryY=0.5;entryDx=0;entryDy=0;" edge="1" parent="1" source="WNFPSXFKTKzP_oiveUVC-148" target="WNFPSXFKTKzP_oiveUVC-155">
          <mxGeometry width="50" height="50" relative="1" as="geometry">
            <mxPoint x="710" y="360" as="sourcePoint" />
            <mxPoint x="760" y="310" as="targetPoint" />
          </mxGeometry>
        </mxCell>
        <mxCell id="WNFPSXFKTKzP_oiveUVC-160" value="" style="endArrow=none;html=1;rounded=0;exitX=1;exitY=0.75;exitDx=0;exitDy=0;entryX=0;entryY=0.5;entryDx=0;entryDy=0;" edge="1" parent="1" source="WNFPSXFKTKzP_oiveUVC-148" target="WNFPSXFKTKzP_oiveUVC-154">
          <mxGeometry width="50" height="50" relative="1" as="geometry">
            <mxPoint x="710" y="360" as="sourcePoint" />
            <mxPoint x="760" y="310" as="targetPoint" />
          </mxGeometry>
        </mxCell>
        <mxCell id="WNFPSXFKTKzP_oiveUVC-161" value="" style="endArrow=none;html=1;rounded=0;exitX=0.75;exitY=1;exitDx=0;exitDy=0;entryX=0;entryY=0;entryDx=0;entryDy=0;" edge="1" parent="1" source="WNFPSXFKTKzP_oiveUVC-148" target="WNFPSXFKTKzP_oiveUVC-150">
          <mxGeometry width="50" height="50" relative="1" as="geometry">
            <mxPoint x="710" y="360" as="sourcePoint" />
            <mxPoint x="760" y="310" as="targetPoint" />
          </mxGeometry>
        </mxCell>
        <mxCell id="WNFPSXFKTKzP_oiveUVC-162" value="" style="endArrow=none;html=1;rounded=0;entryX=1;entryY=0;entryDx=0;entryDy=0;exitX=0;exitY=1;exitDx=0;exitDy=0;" edge="1" parent="1" source="WNFPSXFKTKzP_oiveUVC-149" target="WNFPSXFKTKzP_oiveUVC-148">
          <mxGeometry width="50" height="50" relative="1" as="geometry">
            <mxPoint x="710" y="420" as="sourcePoint" />
            <mxPoint x="760" y="370" as="targetPoint" />
          </mxGeometry>
        </mxCell>
        <mxCell id="WNFPSXFKTKzP_oiveUVC-166" value="" style="endArrow=none;html=1;rounded=0;exitX=0.25;exitY=1;exitDx=0;exitDy=0;entryX=1;entryY=0;entryDx=0;entryDy=0;" edge="1" parent="1" source="WNFPSXFKTKzP_oiveUVC-21" target="WNFPSXFKTKzP_oiveUVC-25">
          <mxGeometry width="50" height="50" relative="1" as="geometry">
            <mxPoint x="-233" y="390" as="sourcePoint" />
            <mxPoint x="-190" y="380" as="targetPoint" />
          </mxGeometry>
        </mxCell>
        <mxCell id="WNFPSXFKTKzP_oiveUVC-167" value="" style="endArrow=none;html=1;rounded=0;exitX=0.5;exitY=0;exitDx=0;exitDy=0;" edge="1" parent="1" source="WNFPSXFKTKzP_oiveUVC-27">
          <mxGeometry width="50" height="50" relative="1" as="geometry">
            <mxPoint x="-233" y="390" as="sourcePoint" />
            <mxPoint x="-150" y="360" as="targetPoint" />
          </mxGeometry>
        </mxCell>
        <mxCell id="WNFPSXFKTKzP_oiveUVC-168" value="" style="endArrow=none;html=1;rounded=0;entryX=0.5;entryY=0;entryDx=0;entryDy=0;exitX=0.75;exitY=1;exitDx=0;exitDy=0;" edge="1" parent="1" source="WNFPSXFKTKzP_oiveUVC-21" target="WNFPSXFKTKzP_oiveUVC-26">
          <mxGeometry width="50" height="50" relative="1" as="geometry">
            <mxPoint x="-233" y="390" as="sourcePoint" />
            <mxPoint x="-183" y="340" as="targetPoint" />
          </mxGeometry>
        </mxCell>
        <mxCell id="WNFPSXFKTKzP_oiveUVC-170" value="" style="endArrow=none;html=1;rounded=0;entryX=0.5;entryY=0;entryDx=0;entryDy=0;exitX=0.609;exitY=1.004;exitDx=0;exitDy=0;exitPerimeter=0;" edge="1" parent="1" source="WNFPSXFKTKzP_oiveUVC-21" target="jsRNLRrK1X6OkYk40ewY-31">
          <mxGeometry width="50" height="50" relative="1" as="geometry">
            <mxPoint x="-203" y="280" as="sourcePoint" />
            <mxPoint x="-153" y="230" as="targetPoint" />
          </mxGeometry>
        </mxCell>
        <mxCell id="WNFPSXFKTKzP_oiveUVC-171" value="" style="endArrow=none;html=1;rounded=0;entryX=1;entryY=0.5;entryDx=0;entryDy=0;" edge="1" parent="1" target="WNFPSXFKTKzP_oiveUVC-21">
          <mxGeometry width="50" height="50" relative="1" as="geometry">
            <mxPoint x="-20" y="330" as="sourcePoint" />
            <mxPoint x="7" y="300" as="targetPoint" />
          </mxGeometry>
        </mxCell>
        <mxCell id="WNFPSXFKTKzP_oiveUVC-179" value="0,n" style="edgeLabel;html=1;align=center;verticalAlign=middle;resizable=0;points=[];" vertex="1" connectable="0" parent="WNFPSXFKTKzP_oiveUVC-171">
          <mxGeometry x="0.0935" y="-1" relative="1" as="geometry">
            <mxPoint as="offset" />
          </mxGeometry>
        </mxCell>
        <mxCell id="WNFPSXFKTKzP_oiveUVC-172" value="1,1" style="endArrow=none;html=1;rounded=0;entryX=1;entryY=0.5;entryDx=0;entryDy=0;exitX=0;exitY=0.5;exitDx=0;exitDy=0;" edge="1" parent="1" source="WNFPSXFKTKzP_oiveUVC-61" target="WNFPSXFKTKzP_oiveUVC-7">
          <mxGeometry width="50" height="50" relative="1" as="geometry">
            <mxPoint x="-20" y="350" as="sourcePoint" />
            <mxPoint x="90" y="330" as="targetPoint" />
          </mxGeometry>
        </mxCell>
        <mxCell id="WNFPSXFKTKzP_oiveUVC-174" value="Cadastra" style="rhombus;whiteSpace=wrap;html=1;" vertex="1" parent="1">
          <mxGeometry x="-183" y="655" width="100" height="40" as="geometry" />
        </mxCell>
        <mxCell id="WNFPSXFKTKzP_oiveUVC-175" value="" style="endArrow=none;html=1;rounded=0;entryX=0;entryY=0.5;entryDx=0;entryDy=0;exitX=1;exitY=0.5;exitDx=0;exitDy=0;" edge="1" parent="1" source="WNFPSXFKTKzP_oiveUVC-50" target="WNFPSXFKTKzP_oiveUVC-174">
          <mxGeometry width="50" height="50" relative="1" as="geometry">
            <mxPoint x="-500" y="605" as="sourcePoint" />
            <mxPoint x="-450" y="555" as="targetPoint" />
          </mxGeometry>
        </mxCell>
        <mxCell id="WNFPSXFKTKzP_oiveUVC-177" value="1,1" style="edgeLabel;html=1;align=center;verticalAlign=middle;resizable=0;points=[];" vertex="1" connectable="0" parent="WNFPSXFKTKzP_oiveUVC-175">
          <mxGeometry x="0.1854" y="-4" relative="1" as="geometry">
            <mxPoint x="-99" y="-4" as="offset" />
          </mxGeometry>
        </mxCell>
        <mxCell id="WNFPSXFKTKzP_oiveUVC-176" value="" style="endArrow=none;html=1;rounded=0;entryX=0;entryY=0.5;entryDx=0;entryDy=0;exitX=1;exitY=0.5;exitDx=0;exitDy=0;" edge="1" parent="1" source="WNFPSXFKTKzP_oiveUVC-174" target="WNFPSXFKTKzP_oiveUVC-139">
          <mxGeometry width="50" height="50" relative="1" as="geometry">
            <mxPoint x="84.5" y="675" as="sourcePoint" />
            <mxPoint x="-122.5" y="555" as="targetPoint" />
          </mxGeometry>
        </mxCell>
        <mxCell id="WNFPSXFKTKzP_oiveUVC-178" value="0,n" style="edgeLabel;html=1;align=center;verticalAlign=middle;resizable=0;points=[];" vertex="1" connectable="0" parent="WNFPSXFKTKzP_oiveUVC-176">
          <mxGeometry x="-0.3009" y="1" relative="1" as="geometry">
            <mxPoint x="108" y="1" as="offset" />
          </mxGeometry>
        </mxCell>
        <mxCell id="WNFPSXFKTKzP_oiveUVC-181" value="" style="endArrow=none;html=1;rounded=0;entryX=1;entryY=1;entryDx=0;entryDy=0;exitX=0.25;exitY=0;exitDx=0;exitDy=0;" edge="1" parent="1" source="WNFPSXFKTKzP_oiveUVC-61" target="WNFPSXFKTKzP_oiveUVC-31">
          <mxGeometry width="50" height="50" relative="1" as="geometry">
            <mxPoint x="-70" y="320" as="sourcePoint" />
            <mxPoint x="-20" y="270" as="targetPoint" />
          </mxGeometry>
        </mxCell>
        <mxCell id="WNFPSXFKTKzP_oiveUVC-182" value="" style="endArrow=none;html=1;rounded=0;entryX=0.5;entryY=1;entryDx=0;entryDy=0;exitX=0.377;exitY=0.002;exitDx=0;exitDy=0;exitPerimeter=0;" edge="1" parent="1" source="WNFPSXFKTKzP_oiveUVC-61" target="WNFPSXFKTKzP_oiveUVC-32">
          <mxGeometry width="50" height="50" relative="1" as="geometry">
            <mxPoint x="50" y="340" as="sourcePoint" />
            <mxPoint x="100" y="290" as="targetPoint" />
          </mxGeometry>
        </mxCell>
        <mxCell id="WNFPSXFKTKzP_oiveUVC-183" value="" style="endArrow=none;html=1;rounded=0;entryX=0.5;entryY=0;entryDx=0;entryDy=0;exitX=0.75;exitY=1;exitDx=0;exitDy=0;" edge="1" parent="1" source="WNFPSXFKTKzP_oiveUVC-61" target="WNFPSXFKTKzP_oiveUVC-30">
          <mxGeometry width="50" height="50" relative="1" as="geometry">
            <mxPoint x="50" y="340" as="sourcePoint" />
            <mxPoint x="100" y="290" as="targetPoint" />
          </mxGeometry>
        </mxCell>
        <mxCell id="WNFPSXFKTKzP_oiveUVC-184" value="" style="endArrow=none;html=1;rounded=0;entryX=0;entryY=1;entryDx=0;entryDy=0;exitX=0.652;exitY=-0.003;exitDx=0;exitDy=0;exitPerimeter=0;" edge="1" parent="1" source="WNFPSXFKTKzP_oiveUVC-61" target="WNFPSXFKTKzP_oiveUVC-33">
          <mxGeometry width="50" height="50" relative="1" as="geometry">
            <mxPoint x="50" y="340" as="sourcePoint" />
            <mxPoint x="100" y="290" as="targetPoint" />
          </mxGeometry>
        </mxCell>
        <mxCell id="WNFPSXFKTKzP_oiveUVC-185" value="" style="endArrow=none;html=1;rounded=0;entryX=0;entryY=0.5;entryDx=0;entryDy=0;exitX=0.75;exitY=0;exitDx=0;exitDy=0;" edge="1" parent="1" source="WNFPSXFKTKzP_oiveUVC-61" target="WNFPSXFKTKzP_oiveUVC-72">
          <mxGeometry width="50" height="50" relative="1" as="geometry">
            <mxPoint x="120" y="330" as="sourcePoint" />
            <mxPoint x="170" y="280" as="targetPoint" />
          </mxGeometry>
        </mxCell>
        <mxCell id="WNFPSXFKTKzP_oiveUVC-186" value="" style="endArrow=none;html=1;rounded=0;entryX=0.5;entryY=1;entryDx=0;entryDy=0;exitX=0.5;exitY=0;exitDx=0;exitDy=0;" edge="1" parent="1" source="WNFPSXFKTKzP_oiveUVC-6" target="WNFPSXFKTKzP_oiveUVC-61">
          <mxGeometry width="50" height="50" relative="1" as="geometry">
            <mxPoint x="30" y="390" as="sourcePoint" />
            <mxPoint x="80" y="340" as="targetPoint" />
          </mxGeometry>
        </mxCell>
        <mxCell id="WNFPSXFKTKzP_oiveUVC-189" value="0,n" style="edgeLabel;html=1;align=center;verticalAlign=middle;resizable=0;points=[];" vertex="1" connectable="0" parent="WNFPSXFKTKzP_oiveUVC-186">
          <mxGeometry x="0.6615" y="1" relative="1" as="geometry">
            <mxPoint as="offset" />
          </mxGeometry>
        </mxCell>
        <mxCell id="WNFPSXFKTKzP_oiveUVC-187" value="" style="endArrow=none;html=1;rounded=0;entryX=0.5;entryY=1;entryDx=0;entryDy=0;exitX=0.5;exitY=0;exitDx=0;exitDy=0;" edge="1" parent="1" source="WNFPSXFKTKzP_oiveUVC-139" target="WNFPSXFKTKzP_oiveUVC-6">
          <mxGeometry width="50" height="50" relative="1" as="geometry">
            <mxPoint x="-220" y="530" as="sourcePoint" />
            <mxPoint x="-170" y="480" as="targetPoint" />
          </mxGeometry>
        </mxCell>
        <mxCell id="WNFPSXFKTKzP_oiveUVC-188" value="1,1" style="edgeLabel;html=1;align=center;verticalAlign=middle;resizable=0;points=[];" vertex="1" connectable="0" parent="WNFPSXFKTKzP_oiveUVC-187">
          <mxGeometry x="-0.7217" y="-2" relative="1" as="geometry">
            <mxPoint as="offset" />
          </mxGeometry>
        </mxCell>
        <mxCell id="WNFPSXFKTKzP_oiveUVC-192" value="" style="endArrow=none;html=1;rounded=0;entryX=0;entryY=0.5;entryDx=0;entryDy=0;exitX=1;exitY=0.5;exitDx=0;exitDy=0;" edge="1" parent="1" source="WNFPSXFKTKzP_oiveUVC-5" target="WNFPSXFKTKzP_oiveUVC-50">
          <mxGeometry width="50" height="50" relative="1" as="geometry">
            <mxPoint x="-250" y="760" as="sourcePoint" />
            <mxPoint x="-200" y="710" as="targetPoint" />
          </mxGeometry>
        </mxCell>
        <mxCell id="WNFPSXFKTKzP_oiveUVC-250" value="1,1" style="edgeLabel;html=1;align=center;verticalAlign=middle;resizable=0;points=[];" vertex="1" connectable="0" parent="WNFPSXFKTKzP_oiveUVC-192">
          <mxGeometry x="0.7296" y="-2" relative="1" as="geometry">
            <mxPoint x="-7" y="-2" as="offset" />
          </mxGeometry>
        </mxCell>
        <mxCell id="WNFPSXFKTKzP_oiveUVC-193" value="" style="endArrow=none;html=1;rounded=0;entryX=0.5;entryY=0;entryDx=0;entryDy=0;exitX=0.5;exitY=1;exitDx=0;exitDy=0;" edge="1" parent="1" source="WNFPSXFKTKzP_oiveUVC-69" target="WNFPSXFKTKzP_oiveUVC-5">
          <mxGeometry width="50" height="50" relative="1" as="geometry">
            <mxPoint x="-330" y="880" as="sourcePoint" />
            <mxPoint x="-280" y="830" as="targetPoint" />
          </mxGeometry>
        </mxCell>
        <mxCell id="WNFPSXFKTKzP_oiveUVC-249" value="0,n" style="edgeLabel;html=1;align=center;verticalAlign=middle;resizable=0;points=[];" vertex="1" connectable="0" parent="WNFPSXFKTKzP_oiveUVC-193">
          <mxGeometry x="-0.8894" y="2" relative="1" as="geometry">
            <mxPoint y="1" as="offset" />
          </mxGeometry>
        </mxCell>
        <mxCell id="WNFPSXFKTKzP_oiveUVC-194" value="" style="endArrow=none;html=1;rounded=0;entryX=0.5;entryY=0;entryDx=0;entryDy=0;" edge="1" parent="1" source="WNFPSXFKTKzP_oiveUVC-4" target="WNFPSXFKTKzP_oiveUVC-69">
          <mxGeometry width="50" height="50" relative="1" as="geometry">
            <mxPoint x="-200" y="930" as="sourcePoint" />
            <mxPoint x="-150" y="880" as="targetPoint" />
          </mxGeometry>
        </mxCell>
        <mxCell id="WNFPSXFKTKzP_oiveUVC-252" value="1,1" style="edgeLabel;html=1;align=center;verticalAlign=middle;resizable=0;points=[];" vertex="1" connectable="0" parent="WNFPSXFKTKzP_oiveUVC-194">
          <mxGeometry x="0.9225" y="-1" relative="1" as="geometry">
            <mxPoint x="1" y="-10" as="offset" />
          </mxGeometry>
        </mxCell>
        <mxCell id="WNFPSXFKTKzP_oiveUVC-213" value="" style="endArrow=none;html=1;rounded=0;entryX=0;entryY=0.5;entryDx=0;entryDy=0;exitX=1;exitY=0.5;exitDx=0;exitDy=0;" edge="1" parent="1" source="WNFPSXFKTKzP_oiveUVC-4" target="WNFPSXFKTKzP_oiveUVC-71">
          <mxGeometry width="50" height="50" relative="1" as="geometry">
            <mxPoint x="-240" y="870" as="sourcePoint" />
            <mxPoint x="-230" y="850" as="targetPoint" />
          </mxGeometry>
        </mxCell>
        <mxCell id="WNFPSXFKTKzP_oiveUVC-251" value="0,1" style="edgeLabel;html=1;align=center;verticalAlign=middle;resizable=0;points=[];" vertex="1" connectable="0" parent="WNFPSXFKTKzP_oiveUVC-213">
          <mxGeometry x="0.8274" y="-1" relative="1" as="geometry">
            <mxPoint x="11" y="-1" as="offset" />
          </mxGeometry>
        </mxCell>
        <mxCell id="WNFPSXFKTKzP_oiveUVC-218" value="" style="endArrow=none;html=1;rounded=0;entryX=0.5;entryY=1;entryDx=0;entryDy=0;exitX=0.5;exitY=0;exitDx=0;exitDy=0;" edge="1" parent="1" source="WNFPSXFKTKzP_oiveUVC-220" target="WNFPSXFKTKzP_oiveUVC-71">
          <mxGeometry width="50" height="50" relative="1" as="geometry">
            <mxPoint x="-133" y="80" as="sourcePoint" />
            <mxPoint x="-135" y="30" as="targetPoint" />
          </mxGeometry>
        </mxCell>
        <mxCell id="WNFPSXFKTKzP_oiveUVC-230" value="0,n" style="edgeLabel;html=1;align=center;verticalAlign=middle;resizable=0;points=[];" vertex="1" connectable="0" parent="WNFPSXFKTKzP_oiveUVC-218">
          <mxGeometry x="0.1625" y="1" relative="1" as="geometry">
            <mxPoint x="1" y="-52" as="offset" />
          </mxGeometry>
        </mxCell>
        <mxCell id="WNFPSXFKTKzP_oiveUVC-220" value="" style="rounded=0;whiteSpace=wrap;html=1;" vertex="1" parent="1">
          <mxGeometry x="-195" y="90" width="120" height="60" as="geometry" />
        </mxCell>
        <mxCell id="WNFPSXFKTKzP_oiveUVC-221" value="" style="endArrow=none;html=1;rounded=0;entryX=0.5;entryY=1;entryDx=0;entryDy=0;" edge="1" parent="1" target="WNFPSXFKTKzP_oiveUVC-220">
          <mxGeometry width="50" height="50" relative="1" as="geometry">
            <mxPoint x="-135" y="300" as="sourcePoint" />
            <mxPoint x="-160" y="160" as="targetPoint" />
          </mxGeometry>
        </mxCell>
        <mxCell id="WNFPSXFKTKzP_oiveUVC-229" value="0,n" style="edgeLabel;html=1;align=center;verticalAlign=middle;resizable=0;points=[];" vertex="1" connectable="0" parent="WNFPSXFKTKzP_oiveUVC-221">
          <mxGeometry x="0.1822" y="-2" relative="1" as="geometry">
            <mxPoint x="-2" y="73" as="offset" />
          </mxGeometry>
        </mxCell>
        <mxCell id="WNFPSXFKTKzP_oiveUVC-224" value="Compete" style="rhombus;whiteSpace=wrap;html=1;" vertex="1" parent="1">
          <mxGeometry x="-185" y="100" width="100" height="40" as="geometry" />
        </mxCell>
        <mxCell id="WNFPSXFKTKzP_oiveUVC-227" value="indice_olimpico" style="ellipse;whiteSpace=wrap;html=1;" vertex="1" parent="1">
          <mxGeometry x="-310" y="105" width="90" height="30" as="geometry" />
        </mxCell>
        <mxCell id="WNFPSXFKTKzP_oiveUVC-228" value="" style="endArrow=none;html=1;rounded=0;entryX=0;entryY=0.5;entryDx=0;entryDy=0;exitX=1;exitY=0.5;exitDx=0;exitDy=0;" edge="1" parent="1" source="WNFPSXFKTKzP_oiveUVC-227" target="WNFPSXFKTKzP_oiveUVC-220">
          <mxGeometry width="50" height="50" relative="1" as="geometry">
            <mxPoint x="-270" y="180" as="sourcePoint" />
            <mxPoint x="-220" y="130" as="targetPoint" />
          </mxGeometry>
        </mxCell>
        <mxCell id="WNFPSXFKTKzP_oiveUVC-231" value="Possui" style="rhombus;whiteSpace=wrap;html=1;" vertex="1" parent="1">
          <mxGeometry x="-508" y="160" width="100" height="40" as="geometry" />
        </mxCell>
        <mxCell id="WNFPSXFKTKzP_oiveUVC-234" value="" style="endArrow=none;html=1;rounded=0;entryX=0.5;entryY=1;entryDx=0;entryDy=0;exitX=0.5;exitY=0;exitDx=0;exitDy=0;" edge="1" parent="1" source="WNFPSXFKTKzP_oiveUVC-231" target="WNFPSXFKTKzP_oiveUVC-94">
          <mxGeometry width="50" height="50" relative="1" as="geometry">
            <mxPoint x="-470" y="130" as="sourcePoint" />
            <mxPoint x="-420" y="80" as="targetPoint" />
          </mxGeometry>
        </mxCell>
        <mxCell id="WNFPSXFKTKzP_oiveUVC-237" value="1,n" style="edgeLabel;html=1;align=center;verticalAlign=middle;resizable=0;points=[];" vertex="1" connectable="0" parent="WNFPSXFKTKzP_oiveUVC-234">
          <mxGeometry x="0.5889" y="1" relative="1" as="geometry">
            <mxPoint x="1" y="3" as="offset" />
          </mxGeometry>
        </mxCell>
        <mxCell id="WNFPSXFKTKzP_oiveUVC-235" value="" style="endArrow=none;html=1;rounded=0;entryX=0.5;entryY=1;entryDx=0;entryDy=0;exitX=0.511;exitY=0.003;exitDx=0;exitDy=0;exitPerimeter=0;" edge="1" parent="1" source="WNFPSXFKTKzP_oiveUVC-20" target="WNFPSXFKTKzP_oiveUVC-231">
          <mxGeometry width="50" height="50" relative="1" as="geometry">
            <mxPoint x="-480" y="200" as="sourcePoint" />
            <mxPoint x="-430" y="150" as="targetPoint" />
          </mxGeometry>
        </mxCell>
        <mxCell id="WNFPSXFKTKzP_oiveUVC-236" value="1,n" style="edgeLabel;html=1;align=center;verticalAlign=middle;resizable=0;points=[];" vertex="1" connectable="0" parent="WNFPSXFKTKzP_oiveUVC-235">
          <mxGeometry x="-0.6278" y="2" relative="1" as="geometry">
            <mxPoint x="3" y="1" as="offset" />
          </mxGeometry>
        </mxCell>
        <mxCell id="WNFPSXFKTKzP_oiveUVC-238" value="Possui" style="rhombus;whiteSpace=wrap;html=1;" vertex="1" parent="1">
          <mxGeometry x="140" y="40" width="100" height="40" as="geometry" />
        </mxCell>
        <mxCell id="WNFPSXFKTKzP_oiveUVC-239" value="" style="endArrow=none;html=1;rounded=0;entryX=0.5;entryY=1;entryDx=0;entryDy=0;exitX=0.5;exitY=0;exitDx=0;exitDy=0;" edge="1" parent="1" source="WNFPSXFKTKzP_oiveUVC-61" target="WNFPSXFKTKzP_oiveUVC-238">
          <mxGeometry width="50" height="50" relative="1" as="geometry">
            <mxPoint x="210" y="170" as="sourcePoint" />
            <mxPoint x="260" y="120" as="targetPoint" />
          </mxGeometry>
        </mxCell>
        <mxCell id="WNFPSXFKTKzP_oiveUVC-242" value="0,n" style="edgeLabel;html=1;align=center;verticalAlign=middle;resizable=0;points=[];" vertex="1" connectable="0" parent="WNFPSXFKTKzP_oiveUVC-239">
          <mxGeometry x="-0.8354" relative="1" as="geometry">
            <mxPoint as="offset" />
          </mxGeometry>
        </mxCell>
        <mxCell id="WNFPSXFKTKzP_oiveUVC-240" value="" style="endArrow=none;html=1;rounded=0;entryX=0;entryY=0.5;entryDx=0;entryDy=0;exitX=1;exitY=0.5;exitDx=0;exitDy=0;" edge="1" parent="1" source="WNFPSXFKTKzP_oiveUVC-94" target="WNFPSXFKTKzP_oiveUVC-238">
          <mxGeometry width="50" height="50" relative="1" as="geometry">
            <mxPoint x="-120" y="170" as="sourcePoint" />
            <mxPoint x="-70" y="120" as="targetPoint" />
          </mxGeometry>
        </mxCell>
        <mxCell id="WNFPSXFKTKzP_oiveUVC-241" value="1,n" style="edgeLabel;html=1;align=center;verticalAlign=middle;resizable=0;points=[];" vertex="1" connectable="0" parent="WNFPSXFKTKzP_oiveUVC-240">
          <mxGeometry x="-0.9418" y="2" relative="1" as="geometry">
            <mxPoint as="offset" />
          </mxGeometry>
        </mxCell>
        <mxCell id="WNFPSXFKTKzP_oiveUVC-244" value="" style="endArrow=none;html=1;rounded=0;entryX=1;entryY=0.5;entryDx=0;entryDy=0;exitX=0;exitY=0.5;exitDx=0;exitDy=0;" edge="1" parent="1" source="WNFPSXFKTKzP_oiveUVC-108" target="WNFPSXFKTKzP_oiveUVC-61">
          <mxGeometry width="50" height="50" relative="1" as="geometry">
            <mxPoint x="380" y="320" as="sourcePoint" />
            <mxPoint x="430" y="270" as="targetPoint" />
          </mxGeometry>
        </mxCell>
        <mxCell id="WNFPSXFKTKzP_oiveUVC-247" value="0,n" style="edgeLabel;html=1;align=center;verticalAlign=middle;resizable=0;points=[];" vertex="1" connectable="0" parent="WNFPSXFKTKzP_oiveUVC-244">
          <mxGeometry x="-0.794" y="-2" relative="1" as="geometry">
            <mxPoint x="-111" y="2" as="offset" />
          </mxGeometry>
        </mxCell>
        <mxCell id="WNFPSXFKTKzP_oiveUVC-245" value="" style="endArrow=none;html=1;rounded=0;entryX=1;entryY=0.5;entryDx=0;entryDy=0;exitX=0;exitY=0.5;exitDx=0;exitDy=0;" edge="1" parent="1" source="WNFPSXFKTKzP_oiveUVC-148" target="WNFPSXFKTKzP_oiveUVC-108">
          <mxGeometry width="50" height="50" relative="1" as="geometry">
            <mxPoint x="290" y="360" as="sourcePoint" />
            <mxPoint x="340" y="310" as="targetPoint" />
          </mxGeometry>
        </mxCell>
        <mxCell id="WNFPSXFKTKzP_oiveUVC-248" value="0,n" style="edgeLabel;html=1;align=center;verticalAlign=middle;resizable=0;points=[];" vertex="1" connectable="0" parent="WNFPSXFKTKzP_oiveUVC-245">
          <mxGeometry x="-0.7487" y="1" relative="1" as="geometry">
            <mxPoint as="offset" />
          </mxGeometry>
        </mxCell>
      </root>
    </mxGraphModel>
  </diagram>
</mxfile>
